<svg width="30" height="30" viewBox="0 0 30 30" fill="none" xmlns="http://www.w3.org/2000/svg">
<path d="M26.1838 10.3812C26.1712 9.43451 25.9939 8.4972 25.66 7.61123C25.3705 6.86392 24.9282 6.18523 24.3615 5.61852C23.7948 5.05181 23.1161 4.60954 22.3688 4.31998C21.4942 3.99167 20.5702 3.81415 19.6363 3.79498C18.4338 3.74123 18.0525 3.72623 15 3.72623C11.9475 3.72623 11.5563 3.72623 10.3625 3.79498C9.42898 3.81429 8.50546 3.99181 7.63128 4.31998C6.88385 4.60934 6.20505 5.05153 5.63832 5.61827C5.07158 6.185 4.62939 6.8638 4.34003 7.61123C4.01107 8.48514 3.83393 9.40887 3.81628 10.3425C3.76253 11.5462 3.74628 11.9275 3.74628 14.98C3.74628 18.0325 3.74628 18.4225 3.81628 19.6175C3.83503 20.5525 4.01128 21.475 4.34003 22.3512C4.62987 23.0984 5.0724 23.777 5.63932 24.3434C6.20625 24.9099 6.88511 25.352 7.63253 25.6412C8.50432 25.9827 9.42799 26.173 10.3638 26.2037C11.5675 26.2575 11.9488 26.2737 15.0013 26.2737C18.0538 26.2737 18.445 26.2737 19.6388 26.2037C20.5727 26.1853 21.4967 26.0082 22.3713 25.68C23.1184 25.3901 23.7969 24.9477 24.3636 24.381C24.9302 23.8144 25.3726 23.1358 25.6625 22.3887C25.9913 21.5137 26.1675 20.5912 26.1863 19.655C26.24 18.4525 26.2563 18.0712 26.2563 15.0175C26.2538 11.965 26.2538 11.5775 26.1838 10.3812ZM14.9925 20.7525C11.8 20.7525 9.21378 18.1662 9.21378 14.9737C9.21378 11.7812 11.8 9.19498 14.9925 9.19498C16.5251 9.19498 17.995 9.80381 19.0787 10.8875C20.1624 11.9713 20.7713 13.4411 20.7713 14.9737C20.7713 16.5063 20.1624 17.9762 19.0787 19.0599C17.995 20.1436 16.5251 20.7525 14.9925 20.7525ZM21.0013 10.3287C20.8243 10.3289 20.649 10.2942 20.4854 10.2265C20.3219 10.1588 20.1732 10.0596 20.0481 9.93442C19.9229 9.80926 19.8237 9.66065 19.756 9.49709C19.6884 9.33353 19.6536 9.15823 19.6538 8.98123C19.6538 8.80435 19.6886 8.62921 19.7563 8.4658C19.824 8.30239 19.9232 8.15391 20.0483 8.02884C20.1733 7.90377 20.3218 7.80456 20.4852 7.73688C20.6486 7.66919 20.8238 7.63435 21.0007 7.63435C21.1775 7.63435 21.3527 7.66919 21.5161 7.73688C21.6795 7.80456 21.828 7.90377 21.953 8.02884C22.0781 8.15391 22.1773 8.30239 22.245 8.4658C22.3127 8.62921 22.3475 8.80435 22.3475 8.98123C22.3475 9.72623 21.745 10.3287 21.0013 10.3287Z" fill="#DEE8F5"/>
<path d="M14.9926 18.7275C17.0657 18.7275 18.7463 17.0469 18.7463 14.9738C18.7463 12.9006 17.0657 11.22 14.9926 11.22C12.9194 11.22 11.2388 12.9006 11.2388 14.9738C11.2388 17.0469 12.9194 18.7275 14.9926 18.7275Z" fill="#DEE8F5"/>
</svg>
