<svg width="473" height="760" viewBox="0 0 473 760" fill="none" xmlns="http://www.w3.org/2000/svg">
<g opacity="0.2">
<path d="M322.982 317.911V1.43542H471.706V359.396" stroke="#CCDDE2" stroke-width="2" stroke-miterlimit="10"/>
<path d="M337.764 213.48V232.001H356.763V198.016H337.764V213.48ZM340.887 201.049H353.616V213.48H340.887V201.049ZM340.887 216.519H353.616V228.962H340.887V216.519Z" fill="#D7E8F0"/>
<path d="M371.263 213.48V232.001H390.261V198.016H371.263V213.48ZM374.397 201.06H387.15V213.48H374.397V201.06ZM374.397 216.531H387.15V228.962H374.397V216.531Z" fill="#D7E8F0"/>
<path d="M403.844 213.48V232.001H422.843V198.016H403.844V213.48ZM406.967 201.049H419.72V213.48H406.967V201.049ZM406.967 216.519H419.72V228.962H406.967V216.519Z" fill="#D7E8F0"/>
<path d="M434.516 213.48V232.001H453.515V198.016H434.516V213.48ZM437.633 201.049H450.392V213.48H437.633V201.049ZM437.633 216.519H450.392V228.962H437.633V216.519Z" fill="#D7E8F0"/>
<path d="M316.421 603.059C311.404 607.99 306.435 613.476 301.139 618.459C299.683 619.845 298.192 621.184 296.668 622.476C294.976 623.911 293.231 625.277 291.444 626.527C291.314 626.163 291.155 625.809 290.969 625.468C287.971 619.681 279.837 616.017 278.827 609.454C277.907 603.325 283.577 597.694 282.651 591.686C281.606 584.892 273.033 580.858 271.448 574.219C270.438 570.099 271.341 565.347 270.973 561.099C270.552 556.349 269.728 551.641 268.509 547.023C269.102 546.983 269.696 546.966 270.29 546.948C282.342 546.751 294.204 553.349 298.105 562.621C301.246 570.145 299.649 578.774 303.823 585.806C304.074 586.261 304.357 586.698 304.672 587.114C305.225 587.852 305.82 588.559 306.453 589.232L307.777 590.575C307.996 590.789 308.24 590.986 308.459 591.217C308.679 591.449 308.917 591.651 309.136 591.883C311.214 593.822 313.334 595.772 314.711 598.087C314.836 598.289 314.947 598.497 315.044 598.712C315.169 598.927 315.28 599.15 315.376 599.378C315.501 599.627 315.596 599.864 315.685 600.095C315.774 600.327 315.887 600.674 315.982 600.917C316.112 601.351 316.237 601.762 316.332 602.191C316.332 602.301 316.332 602.393 316.368 602.48C316.403 602.567 316.368 602.549 316.368 602.59C316.376 602.624 316.376 602.66 316.368 602.694C316.368 602.769 316.368 602.821 316.403 602.874V602.908C316.395 602.959 316.401 603.011 316.421 603.059Z" fill="white"/>
<path d="M316.499 603.418H316.52L316.499 603.438V603.418Z" fill="white"/>
<path d="M316.536 603.383C316.684 603.256 316.809 603.169 316.958 603.041C316.833 603.151 316.684 603.273 316.554 603.4C316.554 603.4 316.554 603.4 316.518 603.4L316.536 603.383Z" fill="white"/>
<path d="M358.73 574.891C358.602 576.909 358.602 578.932 358.73 580.95C355.108 581.813 351.54 582.762 348.043 583.908C345.87 584.608 343.738 585.378 341.607 586.258C335.694 588.596 330.125 591.69 325.049 595.46C326.155 593.621 326.934 591.613 327.352 589.522C327.352 589.435 327.388 589.342 327.406 589.238C328.326 584.903 328.397 580.348 330.493 576.205C334.394 568.565 345.799 563.026 357.738 562.667H357.958C359.044 562.667 360.149 562.667 361.253 562.719C360.016 566.689 359.171 570.765 358.73 574.891Z" fill="white"/>
<path d="M353.304 569.311L348.008 583.884C345.835 584.585 343.704 585.354 341.573 586.234C344.974 579.787 348.869 573.959 353.304 569.311Z" fill="white"/>
<path d="M316.559 603.442C316.559 603.326 316.541 603.21 316.505 603.099C316.541 603.314 316.559 603.442 316.559 603.442Z" fill="white"/>
<path d="M276.289 554.663C288.163 569.67 296.047 595.176 301.141 618.459C299.685 619.844 298.195 621.183 296.671 622.476L276.289 554.663Z" fill="white"/>
<path d="M318.216 579.966C315.841 587.033 315.752 594.17 316.031 598.69C316.103 600.15 316.261 601.605 316.506 603.047L318.216 579.966Z" fill="white"/>
<path d="M316.421 603.059C311.404 607.99 306.435 613.476 301.139 618.459C299.683 619.845 298.192 621.184 296.668 622.476C294.976 623.911 293.231 625.277 291.444 626.527C291.314 626.163 291.155 625.809 290.969 625.468C287.971 619.681 279.837 616.017 278.827 609.454C277.907 603.325 283.577 597.694 282.651 591.686C281.606 584.892 273.033 580.858 271.448 574.219C270.438 570.099 271.341 565.347 270.973 561.099C270.552 556.349 269.728 551.641 268.509 547.023C269.102 546.983 269.696 546.966 270.29 546.948C282.342 546.751 294.204 553.349 298.105 562.621C301.246 570.145 299.649 578.774 303.823 585.806C304.074 586.261 304.357 586.698 304.672 587.114C305.225 587.852 305.82 588.559 306.453 589.232L307.777 590.575C307.996 590.789 308.24 590.986 308.459 591.217C308.679 591.449 308.917 591.651 309.136 591.883C311.214 593.822 313.334 595.772 314.711 598.087C314.836 598.289 314.947 598.497 315.044 598.712C315.169 598.927 315.28 599.15 315.376 599.378C315.501 599.627 315.596 599.864 315.685 600.095C315.774 600.327 315.887 600.674 315.982 600.917C316.112 601.351 316.237 601.762 316.332 602.191C316.332 602.301 316.332 602.393 316.368 602.48C316.403 602.567 316.368 602.549 316.368 602.59C316.376 602.624 316.376 602.66 316.368 602.694C316.368 602.769 316.368 602.821 316.403 602.874V602.908C316.395 602.959 316.401 603.011 316.421 603.059Z" stroke="#CCDDE2" stroke-width="2" stroke-miterlimit="10"/>
<path d="M327.352 589.539C326.932 591.625 326.153 593.626 325.049 595.46" stroke="#CCDDE2" stroke-width="2" stroke-miterlimit="10"/>
<path d="M358.713 580.95C358.585 578.932 358.585 576.909 358.713 574.891C359.155 570.771 360.001 566.701 361.236 562.737C360.132 562.668 359.027 562.668 357.941 562.685H357.721C345.782 563.044 334.376 568.582 330.476 576.222C328.38 580.366 328.309 584.903 327.389 589.256" stroke="#CCDDE2" stroke-width="2" stroke-miterlimit="10"/>
<path d="M327.359 589.546C327.359 589.453 327.394 589.366 327.412 589.255" stroke="#CCDDE2" stroke-width="2" stroke-miterlimit="10"/>
<path d="M327.406 589.232C327.406 589.336 327.37 589.429 327.352 589.516C326.934 591.61 326.155 593.62 325.049 595.46" stroke="#CCDDE2" stroke-width="2" stroke-miterlimit="10"/>
<path d="M327.359 589.546C327.359 589.453 327.394 589.366 327.412 589.255" stroke="#CCDDE2" stroke-width="2" stroke-miterlimit="10"/>
<path d="M316.499 603.331V603.421" stroke="#CCDDE2" stroke-width="2" stroke-miterlimit="10"/>
<path d="M353.304 569.311C348.869 573.941 344.992 579.787 341.573 586.257" stroke="#CCDDE2" stroke-width="2" stroke-miterlimit="10"/>
<path d="M316.559 603.442C316.559 603.326 316.541 603.21 316.505 603.099C316.541 603.314 316.559 603.442 316.559 603.442Z" stroke="#CCDDE2" stroke-width="2" stroke-miterlimit="10"/>
<path d="M276.289 554.663C288.163 569.67 296.047 595.176 301.141 618.459" stroke="#CCDDE2" stroke-width="2" stroke-miterlimit="10"/>
<path d="M318.216 579.966C315.841 587.033 315.752 594.17 316.031 598.69C316.103 600.15 316.261 601.605 316.506 603.047" stroke="#CCDDE2" stroke-width="2" stroke-miterlimit="10"/>
<path d="M444.503 413.371C452.06 440.966 459.856 470.697 459.215 499.062C458.532 528.955 442.917 554.044 414.942 566.777C396.733 575.059 377.158 576.581 358.712 580.939C355.09 581.801 351.522 582.75 348.025 583.896C345.852 584.596 343.721 585.366 341.589 586.246C335.681 588.589 330.119 591.687 325.049 595.46" stroke="#CCDDE2" stroke-width="2" stroke-miterlimit="10"/>
<path d="M142.418 256.308C142.418 256.308 107.176 248.466 77.8405 258.131C74.1862 259.305 70.6453 260.792 67.2606 262.576C50.6368 271.344 38.0917 287.822 39.012 317.749C39.5048 333.375 38.5667 348.788 35.4082 363.743C34.3751 368.596 33.0986 373.4 31.5788 378.154C27.8556 389.776 22.482 400.834 15.6139 411.004C-6.25826 443.333 -2.94536 476.936 21.3135 508.096C22.5841 509.728 23.8902 511.343 25.232 512.923" stroke="#CCDDE2" stroke-width="2" stroke-miterlimit="10"/>
<path d="M399.209 241.99H182.292C157.274 241.99 136.992 261.76 136.992 286.149V485.438C136.992 509.826 157.274 529.597 182.292 529.597H399.209C424.228 529.597 444.509 509.826 444.509 485.438V286.149C444.509 261.76 424.228 241.99 399.209 241.99Z" fill="#336699"/>
<path d="M396.199 237.788H180.814C154.133 237.788 132.504 258.872 132.504 284.881V482.504C132.504 508.512 154.133 529.597 180.814 529.597H396.199C422.881 529.597 444.509 508.512 444.509 482.504V284.881C444.509 258.872 422.881 237.788 396.199 237.788Z" stroke="black" stroke-width="2" stroke-miterlimit="10"/>
<path d="M393.159 247.644H188.342C163.323 247.644 143.042 267.415 143.042 291.803V479.778C143.042 504.167 163.323 523.937 188.342 523.937H393.159C418.178 523.937 438.459 504.167 438.459 479.778V291.803C438.459 267.415 418.178 247.644 393.159 247.644Z" fill="#336699"/>
<path d="M403.555 262.148H341.696C333.289 262.148 326.468 269.301 326.468 278.104V417.677C326.468 426.497 333.289 433.668 341.696 433.668H403.555C411.98 433.668 418.826 426.497 418.826 417.677V278.104C418.826 269.301 411.98 262.148 403.555 262.148ZM414.444 418.285C414.433 421.219 413.232 424.03 411.103 426.104C408.974 428.178 406.09 429.347 403.08 429.357H342.213C339.199 429.347 336.311 428.177 334.178 426.101C332.045 424.025 330.84 421.212 330.826 418.273V277.531C330.84 274.593 332.045 271.779 334.178 269.703C336.311 267.627 339.199 266.457 342.213 266.448H403.08C406.092 266.457 408.978 267.628 411.107 269.705C413.236 271.781 414.436 274.595 414.444 277.531V418.285Z" fill="#D7E8F0"/>
<path d="M402.741 450.047H340.883C332.482 450.047 325.654 457.201 325.654 466.003V487.232C325.654 496.058 332.482 503.229 340.883 503.229H402.741C411.166 503.229 418.011 496.058 418.011 487.232V466.003C418.011 457.201 411.166 450.047 402.741 450.047ZM413.63 487.846C413.622 490.781 412.422 493.595 410.293 495.67C408.164 497.746 405.278 498.916 402.266 498.923H341.399C338.386 498.916 335.498 497.746 333.365 495.672C331.232 493.596 330.026 490.783 330.012 487.846V465.43C330.026 462.492 331.231 459.679 333.364 457.603C335.497 455.526 338.386 454.357 341.399 454.347H402.266C405.279 454.357 408.164 455.527 410.293 457.604C412.423 459.681 413.622 462.494 413.63 465.43V487.846Z" fill="#D7E8F0"/>
<path d="M264.116 465.477L173.469 464.18C172.494 464.165 171.565 463.773 170.885 463.09C170.206 462.408 169.833 461.491 169.847 460.54C169.846 460.211 169.894 459.883 169.99 459.568C170.223 458.819 170.7 458.166 171.348 457.705C171.996 457.243 172.779 456.999 173.581 457.009L264.229 458.294C263.551 459.32 263.172 460.506 263.13 461.726C263.082 463.043 263.424 464.345 264.116 465.477Z" fill="#336699"/>
<path d="M286.096 463.162C285.866 463.908 285.395 464.563 284.753 465.028C284.112 465.493 283.333 465.744 282.534 465.743L276.003 465.65C276.703 464.584 277.085 463.348 277.105 462.081C277.125 460.814 276.782 459.567 276.116 458.48L282.647 458.572C283.621 458.592 284.547 458.985 285.225 459.667C285.903 460.348 286.278 461.263 286.269 462.213C286.257 462.536 286.199 462.855 286.096 463.162Z" fill="#D7E8F0"/>
<path d="M285.883 477.393C285.653 478.139 285.181 478.792 284.54 479.253C283.897 479.716 283.119 479.963 282.32 479.957L192.225 478.672C193.066 477.694 193.606 476.504 193.782 475.239C193.957 473.974 193.761 472.686 193.217 471.525L282.403 472.763C283.378 472.782 284.305 473.175 284.984 473.857C285.662 474.538 286.036 475.454 286.025 476.404C286.029 476.739 285.98 477.072 285.883 477.393Z" fill="#D7E8F0"/>
<path d="M181.384 478.51L173.262 478.395C172.288 478.381 171.36 477.992 170.68 477.313C170 476.634 169.624 475.72 169.634 474.772C169.638 474.437 169.687 474.104 169.782 473.782C170.01 473.037 170.481 472.385 171.124 471.925C171.767 471.466 172.547 471.223 173.345 471.235L180.582 471.345C180.159 472.201 179.92 473.133 179.881 474.083C179.821 475.687 180.354 477.258 181.384 478.51Z" fill="#336699"/>
<path d="M257.705 493.992L173.594 492.8C172.621 492.779 171.696 492.385 171.018 491.704C170.34 491.022 169.964 490.109 169.973 489.159C169.974 488.838 170.027 488.518 170.127 488.21C170.355 487.463 170.826 486.807 171.468 486.342C172.11 485.877 172.889 485.627 173.689 485.629L257.675 486.833C256.99 487.907 256.626 489.147 256.626 490.412C256.626 491.678 256.99 492.918 257.675 493.992H257.705Z" fill="#336699"/>
<path d="M286.233 491.787C286.005 492.533 285.533 493.186 284.891 493.647C284.248 494.109 283.469 494.354 282.67 494.345L269.454 494.177L257.705 494.021C257.02 492.947 256.656 491.707 256.656 490.441C256.656 489.176 257.02 487.937 257.705 486.862L269.674 487.035L282.736 487.221C283.708 487.236 284.634 487.626 285.313 488.305C285.992 488.983 286.367 489.896 286.357 490.844C286.362 491.163 286.32 491.48 286.233 491.787Z" fill="#D7E8F0"/>
<path d="M275.967 465.65C275.055 467.041 273.655 468.062 272.028 468.523C270.402 468.983 268.659 468.853 267.124 468.156C265.588 467.46 264.365 466.243 263.68 464.733C262.995 463.223 262.895 461.522 263.399 459.946C263.904 458.369 264.978 457.025 266.423 456.162C267.867 455.3 269.583 454.978 271.252 455.255C272.922 455.533 274.432 456.392 275.501 457.672C276.57 458.953 277.126 460.568 277.065 462.218C277.022 463.438 276.643 464.623 275.967 465.65Z" fill="white"/>
<g opacity="0.72">
<path opacity="0.72" d="M273.336 461.483C273.18 462.298 272.786 463.051 272.203 463.654C271.919 463.96 271.609 464.243 271.276 464.499C271.092 464.626 270.136 465.373 269.952 465.28C268.694 464.661 267.108 463.104 266.913 461.582C266.88 461.343 266.88 461.102 266.913 460.864C266.982 460.454 267.201 460.082 267.527 459.816C267.854 459.549 268.268 459.406 268.694 459.411C268.973 459.421 269.246 459.495 269.49 459.627C269.734 459.759 269.944 459.944 270.101 460.17C270.279 459.96 270.504 459.793 270.757 459.679C271.012 459.566 271.288 459.51 271.567 459.516C271.819 459.524 272.066 459.582 272.293 459.688C272.52 459.792 272.723 459.942 272.889 460.126C273.055 460.31 273.18 460.526 273.257 460.759C273.334 460.993 273.361 461.239 273.336 461.483Z" fill="#336699"/>
</g>
<path d="M192.213 478.672C191.548 479.449 190.713 480.072 189.769 480.494C188.826 480.916 187.797 481.126 186.759 481.111C185.721 481.096 184.7 480.854 183.769 480.404C182.84 479.954 182.024 479.307 181.384 478.51C180.359 477.256 179.83 475.685 179.894 474.083C179.933 473.133 180.172 472.201 180.594 471.345C181.19 470.165 182.124 469.177 183.283 468.502C184.442 467.828 185.776 467.494 187.125 467.543C188.425 467.583 189.686 467.979 190.764 468.686C191.843 469.394 192.695 470.383 193.222 471.542C193.767 472.703 193.963 473.99 193.788 475.255C193.612 476.521 193.072 477.711 192.231 478.69L192.213 478.672Z" fill="white"/>
<g opacity="0.72">
<path opacity="0.72" d="M190.105 473.828C189.944 474.641 189.549 475.391 188.965 475.993C188.686 476.304 188.376 476.587 188.039 476.838C187.861 476.965 186.899 477.718 186.721 477.619C185.462 477.006 183.877 475.449 183.675 473.921C183.643 473.682 183.643 473.441 183.675 473.203C183.737 472.864 183.9 472.55 184.144 472.302C184.388 472.054 184.702 471.882 185.047 471.808C185.392 471.734 185.752 471.762 186.08 471.888C186.409 472.013 186.692 472.231 186.893 472.514C187.129 472.196 187.469 471.963 187.857 471.857C188.245 471.751 188.658 471.776 189.03 471.928C189.402 472.081 189.709 472.352 189.903 472.697C190.096 473.042 190.163 473.441 190.093 473.828H190.105Z" fill="#336699"/>
</g>
<path d="M269.455 494.177C268.617 495.411 267.388 496.345 265.956 496.838C264.524 497.33 262.966 497.355 261.519 496.906C260.072 496.458 258.814 495.562 257.936 494.354C257.058 493.146 256.608 491.692 256.654 490.213C256.698 489.027 257.056 487.872 257.693 486.862C258.182 486.1 258.821 485.44 259.573 484.921C260.324 484.402 261.174 484.032 262.072 483.834C262.971 483.636 263.901 483.614 264.808 483.769C265.716 483.924 266.584 484.252 267.36 484.735C268.137 485.218 268.808 485.847 269.334 486.584C269.86 487.321 270.231 488.152 270.426 489.03C270.621 489.908 270.636 490.815 270.469 491.699C270.302 492.582 269.958 493.424 269.455 494.177Z" fill="white"/>
<g opacity="0.72">
<path opacity="0.72" d="M266.872 489.929C266.713 490.744 266.317 491.497 265.732 492.1C265.453 492.41 265.143 492.693 264.806 492.945C264.628 493.072 263.666 493.818 263.488 493.726C262.23 493.107 260.644 491.556 260.442 490.028C260.41 489.789 260.41 489.548 260.442 489.31C260.504 488.971 260.666 488.657 260.911 488.409C261.155 488.161 261.47 487.989 261.815 487.915C262.159 487.841 262.519 487.869 262.848 487.994C263.176 488.12 263.459 488.338 263.66 488.621C263.895 488.303 264.234 488.072 264.622 487.966C265.009 487.86 265.422 487.884 265.794 488.036C266.165 488.188 266.472 488.457 266.666 488.801C266.859 489.145 266.928 489.543 266.86 489.929H266.872Z" fill="#336699"/>
</g>
<path d="M169.153 279.088L169.307 300.033C169.347 303.686 170.834 307.184 173.457 309.793C176.081 312.402 179.638 313.922 183.384 314.033L204.651 314.392C206.479 314.419 208.295 314.088 209.99 313.419C211.685 312.749 213.225 311.754 214.518 310.493C215.811 309.232 216.831 307.731 217.517 306.078C218.204 304.425 218.542 302.655 218.514 300.872L218.354 279.927C218.317 276.274 216.831 272.777 214.208 270.168C211.585 267.56 208.028 266.042 204.283 265.933L183.016 265.568C181.187 265.541 179.371 265.872 177.676 266.542C175.981 267.211 174.442 268.206 173.149 269.467C171.856 270.729 170.836 272.23 170.149 273.882C169.463 275.535 169.124 277.306 169.153 279.088Z" fill="white"/>
<path d="M172.424 284.343L172.537 299.507C172.572 302.679 173.864 305.715 176.142 307.98C178.42 310.245 181.508 311.564 184.761 311.661L203.231 311.973C204.819 311.997 206.396 311.709 207.869 311.128C209.341 310.546 210.679 309.683 211.803 308.589C212.927 307.494 213.814 306.191 214.411 304.756C215.009 303.321 215.306 301.785 215.284 300.236V299.212C212.689 294.037 207.637 286.294 202.222 290.924C194.45 297.579 190.894 292.515 186.364 285.981C182.582 280.512 176.829 276.518 172.424 284.343Z" fill="#336699"/>
<path d="M207.173 282.249C209.52 280.73 210.124 277.594 208.523 275.246C206.923 272.898 203.724 272.226 201.378 273.746C199.032 275.265 198.427 278.401 200.028 280.749C201.628 283.097 204.828 283.769 207.173 282.249Z" fill="#336699"/>
<path d="M292.692 287.561C289.368 287.56 286.125 288.562 283.41 290.429C280.693 292.297 278.637 294.938 277.522 297.99C276.408 301.043 276.291 304.357 277.185 307.477C278.081 310.597 279.945 313.371 282.521 315.417L240.368 399.169C240.109 399.129 239.847 399.104 239.585 399.093C238.912 399.102 238.245 399.203 237.602 399.394L210.178 366.179C211.402 364.532 212.096 362.567 212.17 360.534C212.244 358.501 211.695 356.493 210.593 354.766C209.491 353.038 207.886 351.67 205.983 350.835C204.08 350 201.965 349.738 199.909 350.079C197.852 350.421 195.946 351.353 194.434 352.755C192.922 354.157 191.874 355.966 191.421 357.952C190.968 359.938 191.133 362.01 191.894 363.904C192.654 365.798 193.977 367.428 195.692 368.587L176.473 421.902C174.798 422 173.209 422.66 171.975 423.77C170.743 424.881 169.942 426.374 169.71 427.994C169.478 429.615 169.829 431.264 170.703 432.661C171.577 434.058 172.919 435.117 174.503 435.659C176.088 436.2 177.815 436.19 179.393 435.63C180.97 435.071 182.3 433.996 183.157 432.589C184.013 431.181 184.344 429.528 184.092 427.911C183.84 426.293 183.021 424.81 181.775 423.714L200.994 370.393C201.231 370.393 201.463 370.428 201.7 370.428C203.129 370.428 204.543 370.144 205.856 369.594L233.273 402.797C232.696 403.819 232.389 404.965 232.383 406.131C232.355 407.077 232.522 408.018 232.874 408.899C233.226 409.781 233.756 410.584 234.432 411.262C235.108 411.941 235.917 412.479 236.811 412.848C237.704 413.216 238.665 413.406 239.635 413.406C240.605 413.406 241.566 413.216 242.459 412.848C243.353 412.479 244.162 411.941 244.838 411.262C245.514 410.584 246.044 409.781 246.396 408.899C246.748 408.018 246.915 407.077 246.887 406.131C246.882 404.559 246.334 403.034 245.332 401.802L287.485 318.05C289.701 318.811 292.06 319.089 294.398 318.866C296.736 318.643 298.996 317.924 301.018 316.759C303.041 315.594 304.777 314.012 306.105 312.124C307.433 310.235 308.322 308.086 308.708 305.827C309.093 303.568 308.968 301.255 308.338 299.048C307.709 296.842 306.592 294.797 305.066 293.056C303.54 291.316 301.641 289.922 299.503 288.972C297.365 288.023 295.041 287.541 292.692 287.561Z" fill="#D7E8F0"/>
<path d="M343.632 317.743H400.035" stroke="white" stroke-width="2" stroke-miterlimit="10"/>
<path d="M343.632 326.234H400.035" stroke="white" stroke-width="2" stroke-miterlimit="10"/>
<path d="M343.632 334.718H400.035" stroke="white" stroke-width="2" stroke-miterlimit="10"/>
<path d="M343.632 343.203H400.035" stroke="white" stroke-width="2" stroke-miterlimit="10"/>
<path d="M343.632 351.693H400.035" stroke="white" stroke-width="2" stroke-miterlimit="10"/>
<path d="M343.632 401.258H400.035" stroke="white" stroke-width="2" stroke-miterlimit="10"/>
<path d="M343.632 408.747H400.035" stroke="white" stroke-width="2" stroke-miterlimit="10"/>
<path d="M388.184 466.096C388.751 466.554 389.205 467.131 389.513 467.783C389.822 468.435 389.976 469.146 389.965 469.864L389.834 486.839C389.83 487.479 389.695 488.113 389.439 488.703C389.183 489.293 388.81 489.828 388.341 490.277C387.872 490.726 387.316 491.08 386.707 491.319C386.097 491.558 385.445 491.678 384.788 491.671L358.665 491.451C357.34 491.439 356.074 490.915 355.146 489.993C354.218 489.072 353.702 487.83 353.713 486.538L353.867 469.551C353.917 468.272 354.467 467.059 355.405 466.162C356.341 465.264 357.595 464.75 358.908 464.724L385.031 464.944C386.189 464.954 387.305 465.362 388.184 466.096Z" fill="white"/>
<path d="M384.49 469.198L372.307 479.402C372.152 479.531 371.954 479.602 371.749 479.602C371.545 479.602 371.347 479.531 371.191 479.402L358.788 468.984C358.651 468.871 358.554 468.72 358.51 468.551C358.466 468.382 358.478 468.203 358.543 468.041C358.609 467.879 358.725 467.74 358.876 467.645C359.026 467.551 359.203 467.505 359.382 467.514L383.968 467.728C384.14 467.733 384.307 467.79 384.447 467.89C384.586 467.99 384.69 468.129 384.747 468.288C384.804 468.447 384.809 468.619 384.763 468.782C384.717 468.944 384.622 469.089 384.49 469.198Z" fill="#336699"/>
<path d="M372.652 365.334C370.049 365.332 367.505 366.082 365.339 367.49C363.174 368.898 361.486 370.9 360.489 373.244C359.491 375.587 359.228 378.166 359.735 380.655C360.241 383.143 361.493 385.429 363.333 387.224C365.172 389.019 367.516 390.242 370.069 390.738C372.622 391.233 375.267 390.98 377.672 390.01C380.077 389.039 382.132 387.396 383.579 385.286C385.025 383.177 385.797 380.697 385.797 378.16C385.797 376.476 385.458 374.809 384.798 373.254C384.138 371.698 383.17 370.284 381.949 369.093C380.729 367.902 379.279 366.957 377.684 366.313C376.089 365.667 374.379 365.335 372.652 365.334ZM372.652 387.906C372.142 387.906 371.653 387.709 371.292 387.357C370.931 387.005 370.728 386.528 370.728 386.031C370.728 385.534 370.931 385.056 371.292 384.705C371.653 384.353 372.142 384.156 372.652 384.156C373.162 384.156 373.651 384.353 374.012 384.705C374.373 385.056 374.576 385.534 374.576 386.031C374.576 386.528 374.373 387.005 374.012 387.357C373.651 387.709 373.162 387.906 372.652 387.906ZM375.068 373.483C374.665 376.267 374.32 379.19 373.471 381.887C373.392 382.033 373.274 382.157 373.128 382.242C372.983 382.328 372.816 382.373 372.646 382.373C372.476 382.373 372.309 382.328 372.164 382.242C372.018 382.157 371.9 382.033 371.821 381.887C371.219 379.855 370.759 377.786 370.443 375.694C370.176 374.178 369.256 371.707 370.141 370.237C370.906 368.911 373.073 368.755 374.297 369.444C375.858 370.26 375.252 372.06 375.068 373.46V373.483Z" fill="white"/>
<path d="M292.925 315.069C299.45 315.069 304.739 309.913 304.739 303.552C304.739 297.192 299.45 292.035 292.925 292.035C286.4 292.035 281.11 297.192 281.11 303.552C281.11 309.913 286.4 315.069 292.925 315.069Z" fill="white"/>
<path d="M372.558 287.052C374.739 287.052 376.506 285.329 376.506 283.203C376.506 281.078 374.739 279.354 372.558 279.354C370.377 279.354 368.61 281.078 368.61 283.203C368.61 285.329 370.377 287.052 372.558 287.052Z" fill="white"/>
<path d="M361.532 300.606C361.532 297.756 362.694 295.022 364.761 293.007C366.829 290.991 369.633 289.859 372.557 289.859C375.481 289.859 378.285 290.991 380.353 293.007C382.421 295.022 383.582 297.756 383.582 300.606H361.532Z" fill="white"/>
<path d="M296.621 668.493C296.618 669.367 296.343 670.22 295.831 670.938C295.318 671.655 294.594 672.203 293.753 672.51L252.401 687.557C252.401 687.557 250.43 683.992 246.993 678.037L223.375 639.52C216.993 671.526 209.874 703.571 205.463 723.544L201.212 743.43L218.251 748.894C219.276 749.135 220.187 749.703 220.841 750.51C221.494 751.315 221.852 752.311 221.855 753.339C221.854 754.035 221.69 754.722 221.376 755.349C221.061 755.974 220.605 756.522 220.043 756.951C219.479 757.38 218.823 757.678 218.124 757.823C217.425 757.969 216.701 757.957 216.007 757.789L176.514 748.031V738.621L175.576 738.441L176.389 628.669L137.798 619.773C132.959 621.243 127.847 622.592 122.623 623.686C122.567 623.693 122.511 623.705 122.457 623.72C109.776 626.961 96.5305 627.518 83.6102 625.352C83.4974 625.352 83.3668 625.3 83.2599 625.277C82.3218 625.104 81.3838 624.901 80.4635 624.698C80.1845 624.646 79.9114 624.594 79.6324 624.519C78.8249 624.34 78.0175 624.108 77.21 623.894C76.7647 623.767 76.3254 623.662 75.9039 623.535C75.4823 623.408 75.1677 623.304 74.7996 623.176C67.8461 621.048 61.4239 617.529 55.9434 612.845C51.7417 609.406 48.1789 605.287 45.411 600.668C44.2236 598.84 43.1134 596.918 42.0803 594.945C35.8108 582.877 34.5046 578.774 36.3273 578.664C32.3138 577.286 28.425 575.582 24.7025 573.571C24.7025 573.571 16.4974 526.894 34.3918 479.917C34.0498 477.011 34.1116 474.073 34.5759 471.183C38.3459 444.827 59.096 417.735 83.8536 406.762C97.1171 400.882 118.746 391.859 111.758 373.894C109.549 368.211 106.415 363.315 105.821 357.417C105.767 356.838 105.696 356.323 105.655 355.75C104.663 341.86 112.957 328.67 126.387 323.919C130.781 322.306 135.478 321.626 140.164 321.926C144.849 322.225 149.414 323.497 153.555 325.655C154.985 326.39 156.268 327.371 157.343 328.549C161.427 328.653 166.557 329.353 168.968 330.447C173.052 332.311 176.324 335.575 178.77 339.25C183.282 346.1 185.094 354.313 183.87 362.365C183.167 366.822 181.539 371.091 179.084 374.913C177.874 376.827 176.47 378.619 174.893 380.261C173.509 381.673 171.544 383.733 169.65 384.491C169.672 384.507 169.698 384.517 169.725 384.517C169.752 384.517 169.778 384.507 169.799 384.491L169.247 393.097C180.586 390.58 210.883 380.208 233.094 337.386C234.697 334.07 236.348 330.771 238.081 327.507C243.211 317.79 248.708 308.124 255.993 299.767C257.774 297.741 260.41 295.913 263.242 296.792C265.724 297.562 267.398 300.265 265.671 302.534L253.749 318.415L257.555 317.934C257.97 318.032 258.358 318.217 258.692 318.475C259.026 318.735 259.298 319.061 259.489 319.433C259.68 319.805 259.785 320.213 259.798 320.629C259.811 321.045 259.73 321.458 259.561 321.841L257.151 327.42L258.291 326.112C259.075 325.209 260.187 324.637 261.394 324.515C262.601 324.393 263.81 324.73 264.768 325.456C265.725 326.183 266.358 327.242 266.533 328.413C266.708 329.583 266.412 330.775 265.706 331.738L259.425 339.649C258.584 340.694 257.515 341.544 256.296 342.138L243.864 347.983C247.541 352.389 250.96 356.994 254.105 361.775C247.279 374.53 239.276 386.652 230.197 397.994C214.891 417.214 192.852 438.698 165.946 447.68C165.352 463.567 162.472 479.309 158.002 494.71C171.96 494.71 185.277 494.71 198.742 494.71L208.894 467.705C209.361 466.459 210.21 465.383 211.325 464.623C212.44 463.863 213.768 463.456 215.128 463.457H255.708C256.415 463.459 257.114 463.593 257.768 463.85C258.764 464.251 259.614 464.93 260.213 465.801C260.812 466.672 261.133 467.697 261.135 468.747C261.128 469.39 261.003 470.027 260.767 470.628L258.077 477.445H257.988H246.547L241.893 490.444L243.217 487.163H248.94C249.837 487.163 250.719 487.379 251.509 487.791C252.299 488.203 252.973 488.8 253.469 489.528C253.966 490.255 254.27 491.091 254.355 491.961C254.44 492.83 254.304 493.707 253.957 494.513L249.083 505.88C247.613 509.302 245.283 512.309 242.307 514.622C239.331 516.936 235.805 518.481 232.055 519.116L231.538 519.203L230.583 521.958L231.075 521.008C230.915 521.385 230.731 521.796 230.565 522.247H243.401C243.401 522.247 240.551 530.35 235.309 530.836C234.885 530.868 234.459 530.854 234.038 530.795H207.44C208.93 532.41 210.604 534.366 212.391 536.664C220.11 536.554 231.337 537.358 234.115 542.613C234.594 543.136 235.03 543.693 235.421 544.28C236.484 546.016 236.834 550.068 236.579 555.919C236.654 561.953 236.136 567.981 235.029 573.918C236.375 576.38 237.67 578.855 238.912 581.344C241.615 586.267 244.053 591.324 246.215 596.496C246.29 596.633 246.352 596.776 246.399 596.924C252.881 611.412 258.566 626.226 263.432 641.303L263.706 642.235C267.387 652.814 270.385 662.428 271.525 668.279L290.82 664.424C291.482 664.21 292.187 664.152 292.876 664.255C293.566 664.358 294.22 664.618 294.786 665.015C295.352 665.412 295.814 665.934 296.133 666.539C296.452 667.143 296.619 667.813 296.621 668.493Z" fill="white"/>
<path d="M230.037 522.942H242.873C242.346 524.353 241.676 525.71 240.872 526.993C239.287 529.412 236.84 531.941 233.605 531.513H194.663C193.149 531.523 191.675 531.042 190.472 530.147C190.205 528.944 190.281 527.693 190.692 526.53C206.419 524.18 222.532 521.651 229.74 520.198L231.099 519.967L230.037 522.942Z" fill="#336699"/>
<path d="M260.609 469.511C260.602 470.154 260.477 470.791 260.241 471.392L257.557 478.204H246.11L241.408 491.284L239.698 495.462H202.39L211.034 472.509C211.503 471.263 212.353 470.188 213.469 469.428C214.585 468.669 215.913 468.261 217.274 468.261H257.848C258.554 468.262 259.254 468.395 259.908 468.654C260.135 468.744 260.358 468.847 260.573 468.961C260.591 469.135 260.609 469.331 260.609 469.511Z" fill="#336699"/>
<path d="M260.614 469.505C260.606 470.148 260.481 470.785 260.245 471.386L257.556 478.198H246.115L250.093 467.676C250.532 466.509 251.379 465.531 252.485 464.911C253.591 464.293 254.884 464.073 256.139 464.291C257.394 464.51 258.531 465.151 259.349 466.105C260.167 467.058 260.615 468.262 260.614 469.505Z" fill="#336699"/>
<path d="M242.869 522.942C242.869 522.942 239.188 533.487 232.502 531.218C228.346 529.823 228.97 525.789 230.056 522.918L242.869 522.942Z" fill="#336699"/>
<path d="M233.464 478.198H214.804" stroke="white" stroke-width="2" stroke-linecap="round" stroke-linejoin="round"/>
<path d="M231.166 485.05H212.506" stroke="white" stroke-width="2" stroke-linecap="round" stroke-linejoin="round"/>
<path d="M245.785 597.196C242.553 589.579 238.784 582.19 234.504 575.082C236.238 566.128 237.419 550.444 233.661 543.325C230.883 538.065 219.667 537.266 211.925 537.376C205.947 529.673 201.114 525.702 201.114 525.702C201.114 525.702 165.123 531.386 156.907 531.432C148.69 531.478 148.696 535.917 148.696 535.917C148.696 535.917 142.972 552.753 136.501 561.116C130.029 569.479 112.622 579.637 87.5377 583.549C62.4536 587.461 42.7246 582.64 38.2006 580.186C33.6765 577.733 33.5281 580.1 41.6263 595.651C49.7245 611.202 62.1923 622.384 83.1324 626.07C96.0479 628.238 109.29 627.682 121.967 624.438C121.967 624.438 155.102 616.295 164.821 610.085C174.54 603.875 176.06 612.319 176.06 612.319L175.11 739.171L200.758 744.16L222.915 640.256L246.545 678.801L271.094 668.962C268.203 654.163 253.354 615.138 245.785 597.196Z" fill="#2E2E2E"/>
<path d="M178.753 427.58C178.227 431.103 176.69 434.41 174.318 437.118C172.496 439.387 170.178 441.232 167.532 442.517C166.911 442.81 166.265 443.05 165.603 443.235C165.603 441.227 165.567 439.184 165.454 437.193C165.033 429.733 163.489 421.966 158.615 416.23C156.27 413.49 153.31 411.312 149.965 409.864C150.06 408.487 150.172 407.121 150.261 405.743C150.517 403.388 150.504 401.012 150.226 398.659C149.911 397.231 149.732 395.778 149.692 394.319C149.745 392.958 149.543 387.738 150.647 386.61C152.49 387.358 154.464 387.751 156.46 387.767C160.93 387.732 164.481 385.058 166.873 381.638C167.753 381.358 168.668 381.194 169.593 381.152C172.3 381.545 164.22 388.647 166.856 387.842C165.14 388.357 163.887 390.869 163.08 392.305C161.892 394.527 161.203 397.143 162.367 399.493C163.507 401.738 165.894 403.671 167.586 405.518C169.867 407.852 172 410.321 173.974 412.908C177.097 417.145 179.377 422.348 178.753 427.58Z" fill="#336699"/>
<path d="M137.663 406.912C141.914 407.169 146.084 408.165 149.976 409.852C153.319 411.302 156.277 413.479 158.621 416.219C163.495 421.96 165.039 429.721 165.46 437.181C165.573 439.19 165.626 441.233 165.609 443.224C165.519 460.887 162.503 478.366 157.552 495.456C172.929 495.456 187.516 495.456 202.377 495.456H239.697L241.407 491.284L242.773 487.927H248.532C249.429 487.927 250.312 488.143 251.102 488.555C251.893 488.968 252.567 489.565 253.064 490.293C253.561 491.021 253.866 491.858 253.952 492.728C254.037 493.599 253.901 494.476 253.554 495.283L248.68 506.649C247.207 510.07 244.874 513.075 241.898 515.387C238.921 517.699 235.396 519.244 231.647 519.88L231.13 519.972L229.771 520.204C222.563 521.657 206.45 524.186 190.722 526.536C176.337 528.706 162.266 530.714 155.61 531.646C153.087 532.005 150.511 532.271 147.892 532.433C132.355 533.365 116.313 529.997 112.157 512.755C109.45 501.713 110.043 489.808 110.168 478.314" stroke="black" stroke-width="2" stroke-miterlimit="10"/>
<path d="M212.049 537.874C222.107 537.422 231.119 538.875 234.984 545.01C236.932 548.112 236.457 559.05 234.45 574.306" stroke="black" stroke-width="2" stroke-miterlimit="10"/>
<path d="M43.5615 598.892C43.5828 598.918 43.6012 598.947 43.6149 598.979C47.9193 607.533 55.4891 614.918 65.1724 620.086C99.2928 638.282 150.613 616.961 169.071 608.088C169.807 607.735 170.624 607.57 171.444 607.61C172.264 607.651 173.06 607.894 173.757 608.317C174.454 608.741 175.028 609.331 175.426 610.031C175.823 610.731 176.031 611.519 176.03 612.319V748.772L215.517 758.524C216.129 758.677 216.765 758.708 217.389 758.615C218.013 758.522 218.611 758.307 219.148 757.982C219.684 757.658 220.147 757.231 220.51 756.727C220.873 756.224 221.127 755.654 221.258 755.052C221.518 753.882 221.298 752.66 220.644 751.647C219.99 750.634 218.955 749.912 217.761 749.635L200.728 744.165C201.517 738.771 213.071 689.444 222.891 640.261" stroke="black" stroke-width="2" stroke-miterlimit="10"/>
<path d="M200.353 525.06C210.446 533.394 217.695 546.208 224.482 557.094C241.016 583.618 253.383 612.487 262.989 642.026C265.893 650.951 268.564 659.968 271.088 668.985L290.371 665.125C291.465 664.778 292.655 664.862 293.687 665.36C294.718 665.858 295.509 666.729 295.89 667.788C296.27 668.846 296.212 670.008 295.725 671.024C295.238 672.041 294.363 672.832 293.286 673.227L251.935 688.275C251.935 688.275 239.835 666.242 222.926 640.238C198.145 602.086 152.352 543.285 140.264 555.826" stroke="black" stroke-width="2" stroke-miterlimit="10"/>
<path d="M164.279 394.504C164.279 394.504 204.829 391.766 232.627 338.121C232.627 338.121 241.414 344.03 253.662 362.516C253.662 362.516 219.298 430.502 165.461 448.444" stroke="black" stroke-width="2" stroke-miterlimit="10"/>
<path d="M160.61 331.778L162.985 335.297L164.416 337.438C165.867 340.735 167.143 344.102 168.239 347.526L168.31 347.769L171.03 357.898C171.034 357.909 171.034 357.921 171.03 357.932C171.943 359.399 173.204 360.631 174.705 361.526C175.06 361.713 175.39 361.941 175.69 362.203C177.323 363.801 173.019 364.264 172.128 364.791C171.735 365.054 171.413 365.405 171.189 365.815C170.964 366.225 170.845 366.682 170.84 367.146C165.728 387.883 169.017 382.437 166.82 387.049C168.726 385.475 173.464 380.469 173.464 380.469C174.058 380.093 174.616 378.964 175.002 378.403C176.228 376.569 177.283 374.632 178.154 372.615C180.863 366.591 181.488 359.871 179.935 353.47C177.483 343.521 171.766 333.567 160.61 331.778Z" fill="#336699"/>
<path d="M160.122 338.034C159.688 340.186 158.641 342.176 157.1 343.776C155.429 345.558 153.481 347.075 151.33 348.273C147.281 350.622 142.774 352.399 139.372 355.571C135.966 358.764 133.927 363.096 133.667 367.696C133.429 372.407 135.157 377.286 136.208 381.696C139.539 395.951 138.47 409.65 136.629 423.997C134.884 437.534 131.167 450.782 123.96 462.566C115.458 476.456 101.5 487.574 85.7902 493.28C72.7287 498.032 47.3477 502.245 37.7474 489.026C36.091 484.853 36.0732 480.079 36.7144 475.582C40.4844 449.202 61.2345 422.128 85.9921 411.155C99.2555 405.274 120.884 396.24 113.896 378.27C111.67 372.604 108.553 367.713 107.959 361.792C107.906 361.254 107.852 360.716 107.799 360.143C106.802 346.253 115.096 333.069 128.525 328.311C132.919 326.694 137.616 326.012 142.302 326.312C146.988 326.611 151.555 327.885 155.693 330.048C157.163 330.81 158.478 331.826 159.576 333.046C159.652 333.128 159.719 333.217 159.778 333.312C159.862 333.517 159.929 333.727 159.98 333.943C160.308 335.284 160.356 336.675 160.122 338.034Z" fill="#336699"/>
<path d="M165.639 442.628C172.811 441.013 179.105 436.007 180.904 428.691C182.578 421.914 179.93 414.957 175.827 409.505C172.022 404.47 164.096 400.245 164.719 393.103C164.921 390.788 166.097 388.763 167.628 386.968C168.18 386.343 168.75 385.765 169.374 385.174" stroke="black" stroke-width="2" stroke-miterlimit="10"/>
<path d="M150.849 386.448L150.517 410.078" stroke="black" stroke-width="2" stroke-miterlimit="10"/>
<path d="M111.309 374.6C109.095 368.929 105.966 364.038 105.372 358.123C105.313 357.579 105.259 357.035 105.218 356.456C104.215 342.566 112.515 329.388 125.938 324.625C130.333 323.009 135.031 322.328 139.718 322.627C144.405 322.927 148.972 324.2 153.112 326.361C154.578 327.126 155.89 328.144 156.983 329.365L157.262 329.695C158.232 330.85 158.937 332.194 159.329 333.636C159.721 335.079 159.792 336.587 159.536 338.058C159.104 340.204 158.063 342.189 156.532 343.787C154.854 345.573 152.903 347.096 150.749 348.302C146.7 350.651 142.2 352.417 138.786 355.588C135.378 358.79 133.345 363.135 133.098 367.742C132.855 372.453 134.589 377.326 135.622 381.748C138.952 396.003 137.89 409.696 136.049 424.038C134.304 437.575 130.593 450.828 123.374 462.612C114.872 476.502 100.919 487.626 85.204 493.327C71.8872 498.165 45.7759 502.448 36.6031 488.286C33.5217 483.534 33.3199 477.521 34.1154 471.953C37.8855 445.579 58.6475 418.493 83.3932 407.526C96.6804 401.576 118.309 392.565 111.309 374.6Z" stroke="black" stroke-width="2" stroke-miterlimit="10"/>
<path d="M162.291 358.563C163.566 358.563 164.601 357.556 164.601 356.312C164.601 355.069 163.566 354.06 162.291 354.06C161.015 354.06 159.982 355.069 159.982 356.312C159.982 357.556 161.015 358.563 162.291 358.563Z" fill="black"/>
<path d="M161.751 349.054C161.751 349.054 153.932 352.492 156.408 359.177" stroke="black" stroke-width="2" stroke-miterlimit="10"/>
<path d="M168.976 385.284C170.935 384.59 173.025 382.39 174.45 380.949C176.026 379.31 177.434 377.525 178.653 375.619C182.089 370.26 183.883 364.057 183.825 357.738C183.767 351.419 181.86 345.248 178.327 339.95C175.881 336.269 172.621 333.005 168.536 331.153C165.132 329.589 161.322 329.065 157.606 329.648C159.683 331.301 161.545 333.194 163.152 335.285C165.572 338.381 167.266 341.957 168.115 345.761C168.246 346.426 168.358 347.086 168.477 347.758C169.071 351.334 169.403 354.957 171.202 357.886C172.12 359.364 173.386 360.608 174.895 361.515C175.25 361.701 175.581 361.928 175.881 362.192C177.513 363.789 173.209 364.246 172.318 364.773C170.033 366.075 170.882 369.814 170.579 371.979C170.214 374.505 169.438 376.959 168.281 379.248C167.872 380.061 167.405 380.846 166.886 381.598C164.511 385.03 160.949 387.715 156.472 387.738C154.48 387.721 152.51 387.327 150.672 386.581C147.518 385.331 144.697 383.397 142.425 380.926" stroke="black" stroke-width="2" stroke-miterlimit="10"/>
<path d="M164.678 373.31C164.678 373.31 159.293 376.302 156.96 369.415" stroke="black" stroke-width="2" stroke-miterlimit="10"/>
<path d="M242.429 349.199L255.847 342.879C257.073 342.302 258.145 341.454 258.976 340.402L265.239 332.478C265.961 331.517 266.269 330.319 266.101 329.139C265.932 327.959 265.298 326.889 264.333 326.157C263.369 325.425 262.15 325.087 260.935 325.216C259.72 325.345 258.604 325.93 257.824 326.847L256.678 328.149L259.095 322.576C259.258 322.193 259.336 321.78 259.322 321.365C259.308 320.95 259.203 320.543 259.013 320.171C258.823 319.8 258.554 319.472 258.222 319.211C257.891 318.949 257.506 318.761 257.094 318.658L253.276 319.15L265.21 303.263C266.902 301.011 265.257 298.291 262.781 297.522C259.932 296.636 257.296 298.465 255.526 300.491C248.247 308.848 242.732 318.513 237.608 328.236C235.886 331.504 234.226 334.799 232.627 338.121" stroke="black" stroke-width="2" stroke-linejoin="round"/>
<path d="M253.284 319.15C253.284 319.15 245.5 328.589 256.685 328.149" stroke="black" stroke-width="2" stroke-miterlimit="10"/>
<path d="M231.611 519.874C231.611 519.874 225.84 529.001 232.561 531.241C239.282 533.481 242.957 522.947 242.957 522.947H229.984" stroke="black" stroke-width="2" stroke-miterlimit="10"/>
<path d="M233.676 531.507H206.911" stroke="black" stroke-width="2" stroke-miterlimit="10"/>
<path d="M260.696 469.505C260.688 470.148 260.564 470.785 260.328 471.386L257.644 478.198H246.204L250.176 467.676C250.615 466.509 251.462 465.531 252.568 464.911C253.673 464.293 254.967 464.073 256.222 464.291C257.478 464.51 258.614 465.151 259.432 466.105C260.25 467.058 260.697 468.262 260.696 469.505Z" stroke="black" stroke-width="2" stroke-miterlimit="10"/>
<path d="M204.834 478.198L198.303 495.451L208.438 468.463C208.907 467.215 209.759 466.139 210.877 465.379C211.996 464.618 213.327 464.213 214.69 464.215H255.264" stroke="black" stroke-width="2" stroke-miterlimit="10"/>
<path d="M239.71 495.451L246.206 478.198" stroke="black" stroke-width="2" stroke-miterlimit="10"/>
<path d="M33.9599 480.64C16.0596 527.618 24.2646 574.306 24.2646 574.306C51.3021 588.972 89.6378 587.699 117.097 574.81C126.81 570.238 137.283 563.35 141.522 553.257C144.633 545.866 147.869 538.533 150.534 531.038" stroke="black" stroke-width="2" stroke-miterlimit="10"/>
<path d="M18.5234 627.216H176.052" stroke="black" stroke-width="2" stroke-miterlimit="10"/>
<path d="M157.566 495.468L155.868 501.065" stroke="black" stroke-width="2" stroke-miterlimit="10"/>
<path d="M43.6143 598.979C43.6143 598.979 36.6798 586.917 34.4238 578.89" stroke="black" stroke-width="2" stroke-miterlimit="10"/>
<path d="M77.8402 258.132V378.154H31.5784C33.1025 373.405 34.3789 368.601 35.4078 363.743C38.5664 348.788 39.5044 333.347 39.0117 317.749C38.0914 287.822 50.6186 271.344 67.2603 262.577C70.645 260.793 74.1859 259.305 77.8402 258.132Z" stroke="#CCDDE2" stroke-width="2" stroke-miterlimit="10"/>
<path d="M67.262 262.576V363.743H35.3917C38.5503 348.788 39.4883 333.347 38.9955 317.749C38.0931 287.822 50.6203 271.356 67.262 262.576Z" stroke="#CCDDE2" stroke-width="2" stroke-miterlimit="10"/>
</g>
</svg>
